<svg width="36" height="33" viewBox="0 0 36 33" fill="none" xmlns="http://www.w3.org/2000/svg">
<path d="M33.9375 0H1.9375C0.875 0 0 0.9375 0 2V2.0625C0 3.125 0.875 4.0625 2 4.0625V20.0625C2 21.125 2.875 22.0625 4 22.0625H16V24.1875L11.25 28.9375C10.875 29.3125 10.875 29.9375 11.25 30.3125L12.6875 31.75C13.0625 32.125 13.6875 32.125 14.125 31.75L18 27.875L21.875 31.75C22.25 32.125 22.875 32.125 23.25 31.75L24.6875 30.3125C25.0625 29.9375 25.0625 29.3125 24.6875 28.9375L20 24.1875V22.0625H32C33.0625 22.0625 34 21.125 34 20.0625V4.0625C35.0625 4.0625 36 3.125 36 2.0625C36 0.9375 35.0625 0 33.9375 0ZM30 18.0625H6V4.0625H30V18.0625Z" fill="#F5A302"/>
</svg>
