<svg width="21" height="33" viewBox="0 0 21 33" fill="none" xmlns="http://www.w3.org/2000/svg">
<path d="M14 6C15.625 6 17 4.6875 17 3C17 1.375 15.625 0 14 0C12.3125 0 11 1.375 11 3C11 4.6875 12.3125 6 14 6ZM5.5625 24.125C5.375 24.625 5.0625 25.125 4.6875 25.5L1.5625 28.625C0.75 29.375 0.75 30.6875 1.5625 31.4375C2.3125 32.25 3.625 32.25 4.375 31.4375L8.0625 27.75C8.5 27.375 8.75 26.875 9 26.375L9.8125 24.25C6.375 20.5 7.375 21.6875 6.875 20.9375L5.5625 24.125ZM19.875 15.375L18.4375 14.625L17.8125 12.75C16.875 10 14.3125 8.0625 11.4375 8C9.1875 8 7.9375 8.6875 5.5625 9.625C4.25 10.125 3.125 11.1875 2.5 12.5L2.0625 13.375C1.5625 14.3125 2 15.5625 2.9375 16C3.9375 16.5 5.125 16.125 5.625 15.125L6 14.3125C6.25 13.875 6.625 13.5 7.0625 13.3125L8.75 12.625L7.8125 16.4375C7.4375 17.75 7.8125 19.125 8.6875 20.125L12.4375 24.1875C12.9375 24.6875 13.25 25.3125 13.375 25.9375L14.5625 30.5C14.8125 31.5625 15.875 32.25 16.9375 32C18 31.6875 18.6875 30.625 18.4375 29.5625L17 24C16.875 23.3125 16.5625 22.75 16.125 22.25L13.25 19.125L14.3125 14.875L14.6875 15.875C15 16.875 15.6875 17.75 16.625 18.1875L18.125 18.9375C19.0625 19.4375 20.25 19 20.75 18.0625C21.25 17.0625 20.875 15.875 19.875 15.375Z" fill="#F5A302"/>
</svg>
