<svg width="32" height="32" viewBox="0 0 32 32" fill="none" xmlns="http://www.w3.org/2000/svg">
<path d="M31.1875 20.8125C31.1875 20.4375 31 20.0625 30.6875 19.875L27.8125 18.25C27.9375 17.5 28 16.75 28 16C28 15.3125 27.9375 14.5625 27.8125 13.8125L30.6875 12.1875C31 12 31.1875 11.625 31.1875 11.25C31.1875 10.375 28.5625 5.0625 27.25 5.0625C27.0625 5.0625 26.875 5.125 26.6875 5.25L23.8125 6.9375C22.6875 5.9375 21.375 5.25 20 4.75V1.375C20 0.875 19.6875 0.5 19.1875 0.375C18.1875 0.125 17.125 0 16 0C14.875 0 13.8125 0.125 12.8125 0.375C12.3125 0.5 12 0.875 12 1.375V4.75C10.625 5.25 9.3125 5.9375 8.1875 6.9375L5.3125 5.25C5.125 5.125 4.9375 5.0625 4.75 5.0625C3.5625 5.0625 0.8125 10.1875 0.8125 11.25C0.8125 11.625 1 12 1.3125 12.1875L4.1875 13.8125C4.0625 14.5625 4 15.3125 4 16C4 16.75 4.0625 17.5 4.1875 18.25L1.3125 19.875C1 20.0625 0.8125 20.4375 0.8125 20.8125C0.8125 21.6875 3.375 27 4.75 27C4.9375 27 5.125 26.9375 5.3125 26.8125L8.1875 25.125C9.3125 26.125 10.625 26.8125 12 27.3125V30.6875C12 31.1875 12.3125 31.5625 12.8125 31.6875C13.8125 31.9375 14.875 32 16 32C17.125 32 18.1875 31.9375 19.1875 31.6875C19.6875 31.5625 20 31.1875 20 30.6875V27.3125C21.375 26.8125 22.6875 26.125 23.8125 25.125L26.6875 26.8125C26.875 26.9375 27.0625 27 27.25 27C28.4375 27 31.1875 21.875 31.1875 20.8125ZM16 21C13.25 21 11 18.8125 11 16C11 13.25 13.25 11 16 11C18.75 11 21 13.25 21 16C21 18.8125 18.75 21 16 21Z" fill="#F5A302"/>
</svg>
